<svg width="21" height="20" viewBox="0 0 21 20" fill="none" xmlns="http://www.w3.org/2000/svg">
<path d="M14.7452 0H6.66102C5.08153 0.00208882 3.56733 0.630465 2.45046 1.74733C1.33359 2.8642 0.705214 4.3784 0.703125 5.95789V14.0421C0.705214 15.6216 1.33359 17.1358 2.45046 18.2527C3.56733 19.3695 5.08153 19.9979 6.66102 20H14.7452C16.3249 19.9986 17.8395 19.3705 18.9566 18.2534C20.0736 17.1364 20.7017 15.6218 20.7031 14.0421V5.95789C20.701 4.3784 20.0727 2.8642 18.9558 1.74733C17.8389 0.630465 16.3247 0.00208882 14.7452 0ZM18.6926 14.0421C18.6926 15.089 18.2767 16.093 17.5364 16.8333C16.7962 17.5736 15.7921 17.9895 14.7452 17.9895H6.66102C5.61411 17.9895 4.61008 17.5736 3.86981 16.8333C3.12953 16.093 2.71365 15.089 2.71365 14.0421V5.95789C2.71365 4.91099 3.12953 3.90696 3.86981 3.16668C4.61008 2.42641 5.61411 2.01053 6.66102 2.01053H14.7452C15.7921 2.01053 16.7962 2.42641 17.5364 3.16668C18.2767 3.90696 18.6926 4.91099 18.6926 5.95789V14.0421Z" fill="white"/>
<path d="M10.7037 4.83008C9.68018 4.82956 8.67954 5.13261 7.82833 5.70091C6.97712 6.2692 6.31358 7.07719 5.92167 8.02267C5.52976 8.96814 5.42708 10.0086 5.62663 11.0125C5.82617 12.0163 6.31897 12.9384 7.04268 13.6621C7.76639 14.3858 8.6885 14.8786 9.69234 15.0782C10.6962 15.2777 11.7367 15.175 12.6821 14.7831C13.6276 14.3912 14.4356 13.7277 15.0039 12.8765C15.5722 12.0253 15.8752 11.0246 15.8747 10.0011C15.8733 8.63011 15.3281 7.31564 14.3586 6.34618C13.3891 5.37673 12.0747 4.83147 10.7037 4.83008ZM10.7037 13.159C10.0791 13.159 9.46854 12.9738 8.94923 12.6268C8.42992 12.2798 8.02516 11.7866 7.78615 11.2096C7.54713 10.6326 7.4846 9.99763 7.60644 9.38506C7.72829 8.77248 8.02905 8.2098 8.47069 7.76816C8.91233 7.32652 9.47501 7.02576 10.0876 6.90391C10.7002 6.78207 11.3351 6.8446 11.9121 7.08362C12.4892 7.32263 12.9824 7.72739 13.3294 8.2467C13.6763 8.76601 13.8616 9.37656 13.8616 10.0011C13.8616 10.8387 13.5289 11.6419 12.9366 12.2341C12.3444 12.8263 11.5412 13.159 10.7037 13.159Z" fill="white"/>
<path d="M15.9079 6.10672C16.6142 6.10672 17.1868 5.53412 17.1868 4.82777C17.1868 4.12143 16.6142 3.54883 15.9079 3.54883C15.2015 3.54883 14.6289 4.12143 14.6289 4.82777C14.6289 5.53412 15.2015 6.10672 15.9079 6.10672Z" fill="white"/>
</svg>
