<svg width="100" height="16" viewBox="0 0 100 16" fill="none" xmlns="http://www.w3.org/2000/svg">
<g clip-path="url(#clip0_20_1079)">
<path d="M19.2678 16H16.1387L3.26338 4.22785V16H0V0H3.12908L16.0044 11.7026V0H19.2678V16Z" fill="white"/>
<path d="M29.2465 0H25.9831V16H29.2465V0Z" fill="white"/>
<path d="M67.4889 16H64.2255V2.74338H55.3342V0H76.3802V2.74338H67.4889V16Z" fill="white"/>
<mask id="mask0_20_1079" style="mask-type:luminance" maskUnits="userSpaceOnUse" x="-5" y="-5" width="109" height="25">
<path d="M103.498 -4.06934H-4.05501V19.9143H103.498V-4.06934Z" fill="white"/>
</mask>
<g mask="url(#mask0_20_1079)">
<path d="M86.9219 -0.00390625H90.884C93.8697 -0.00390625 96.1353 0.674508 97.6806 2.03134C99.226 3.38817 100.001 5.37664 100.005 7.99675C100.005 10.6195 99.2303 12.608 97.6806 13.9622C96.131 15.3164 93.8654 15.9939 90.884 15.9948H86.9219C83.9362 15.9948 81.6702 15.3168 80.124 13.9609C78.5777 12.6049 77.805 10.6164 77.8059 7.99544C77.8059 5.3727 78.5808 3.38423 80.1304 2.03003C81.6801 0.675819 83.944 -0.00215776 86.9219 -0.00390625ZM95.1379 12.0187C96.171 11.1969 96.6875 9.85627 96.6875 7.99675C96.6875 6.13723 96.171 4.79614 95.1379 3.97347C94.1047 3.15168 92.4091 2.74035 90.051 2.73948H87.7549C85.3985 2.73948 83.7029 3.15081 82.668 3.97347C81.6332 4.79614 81.1154 6.13679 81.1145 7.99544C81.1145 9.85496 81.6311 11.1956 82.6642 12.0174C83.6973 12.8392 85.3929 13.251 87.751 13.2527H90.0471C92.4027 13.2527 94.0983 12.8409 95.134 12.0174" fill="white"/>
<path d="M48.0713 16H53.676L39.8786 7.99934L53.676 0H48.0713L38.2127 5.55364V0H34.9493V8.62093L38.2127 10.4568V10.445L48.0713 16Z" fill="white"/>
</g>
</g>
<defs>
<clipPath id="clip0_20_1079">
<rect width="100" height="16" fill="white"/>
</clipPath>
</defs>
</svg>
