<svg width="94" height="95" viewBox="0 0 94 95" fill="none" xmlns="http://www.w3.org/2000/svg">
<path d="M94 59.2037C94 55.1793 90.7229 53.4873 87.8316 51.9945C87.4463 51.7957 87.0576 51.595 86.6719 51.3872L83.7417 49.8092L83.4584 46.98C86.1774 45.1766 87.9748 42.0895 87.9748 38.5891V35.9139H90.1464V33.16H87.9748V33.0198C87.9748 27.9383 84.188 23.7268 79.2886 23.0532V20.9268H76.5347V23.0532C71.6353 23.727 67.8485 27.9383 67.8485 33.0198V33.16H65.677V35.9139H67.8485V38.5891C67.8485 42.0893 69.6459 45.1764 72.3649 46.98L72.0817 49.8092L69.1515 51.3872C68.7665 51.5945 68.3786 51.795 67.9939 51.9934C67.1937 52.4067 66.373 52.831 65.6107 53.3027C65.6006 53.2977 65.5905 53.2925 65.5806 53.2874C65.2316 53.1119 64.8804 52.9355 64.5306 52.7555L54.8462 47.7664L54.3687 42.9968C58.3048 40.5328 60.9296 36.1601 60.9296 31.1836V27.983H64.2121V19.7213H61.4582C61.4582 13.2722 57.1046 7.57734 50.9787 5.82273C50.4929 4.0819 48.8938 2.80078 47.0002 2.80078C45.1077 2.80078 43.5095 4.08043 43.0226 5.8198C40.6825 6.48753 38.5484 7.73725 36.8056 9.47038L38.7475 11.4231C39.9293 10.2479 41.3326 9.34773 42.8693 8.7685V19.7215H35.2961C35.2961 17.471 35.9366 15.2857 37.1485 13.4015L34.8323 11.9118C33.3342 14.2412 32.5422 16.9417 32.5422 19.7215H29.7883V27.9832H33.0709V31.1838C33.0709 36.1601 35.6958 40.5328 39.6318 42.997L39.1543 47.7666L29.4699 52.7557C29.1198 52.936 28.7682 53.1126 28.4187 53.2883C28.4089 53.2931 28.3992 53.2981 28.3897 53.303C27.6274 52.8314 26.8067 52.4071 26.0064 51.9938C25.6218 51.7952 25.2339 51.5949 24.8487 51.3874L21.9185 49.8094L21.6352 46.9802C24.3544 45.1768 26.1516 42.0895 26.1516 38.5893V35.9141H28.3232V33.1602H26.1516V33.0199C26.1516 27.9384 22.3648 23.727 17.4653 23.0534V20.927H14.7114V23.0534C9.81198 23.7272 6.02518 27.9384 6.02518 33.0199V33.1602H3.85363V35.9141H6.02518V38.5893C6.02518 42.0895 7.82238 45.1766 10.5416 46.9802L10.2583 49.8094L7.32814 51.3874C6.94241 51.595 6.55375 51.7957 6.16857 51.9947C3.27715 53.4873 0 55.1792 0 59.2037V75.2024H22.153L47.0002 92.011L58.8436 83.9992L57.3007 81.7182L48.3773 87.7548V55.8482L53.7373 59.7308L59.6085 53.3179L63.2695 55.2039C63.6274 55.3883 63.9868 55.5689 64.3443 55.7485C67.881 57.5257 70.0487 58.7545 70.0487 61.5052L70.0485 73.0946L59.5821 80.1751L61.125 82.4561L71.8476 75.2026H94V59.2037ZM58.7043 19.7215H51.131V8.77162C55.6054 10.4666 58.7043 14.8254 58.7043 19.7215ZM45.623 6.93182C45.623 6.17248 46.2407 5.55487 47 5.55487C47.7593 5.55487 48.377 6.17248 48.377 6.93182V19.7215H45.623V6.93182ZM32.542 22.4754H61.458V25.2293H32.542V22.4754ZM35.8246 31.1838V27.9832H58.1755V31.1838C58.1755 37.346 53.1623 42.3594 47.0002 42.3594C40.838 42.3594 35.8246 37.3461 35.8246 31.1838ZM47.0002 45.1133C48.6601 45.1133 50.2524 44.8202 51.7299 44.2853L52.0993 47.9748L47.0002 51.4797L41.9011 47.9748L42.2704 44.2853C43.748 44.8202 45.3403 45.1133 47.0002 45.1133ZM44.6122 53.18L40.6363 56.06L36.929 52.0109L40.3482 50.2493L44.6122 53.18ZM8.77909 33.0199C8.77909 29.4604 11.3373 26.4886 14.7114 25.8425V29.1887H17.4653V25.8423C20.8395 26.4884 23.3977 29.4602 23.3977 33.0198V33.16H8.77909V33.0199ZM8.77909 38.5893V35.9141H23.3977V38.5893C23.3977 42.6197 20.1188 45.8987 16.0883 45.8987C12.0581 45.8987 8.77909 42.6197 8.77909 38.5893ZM16.0883 48.6526C17.0977 48.6526 18.0721 48.5015 18.992 48.2237L19.1901 50.2029L16.0883 53.6208L12.9865 50.2029L13.1846 48.2237C14.1046 48.5015 15.0791 48.6526 16.0883 48.6526ZM7.43187 54.4417C7.83119 54.2355 8.23418 54.0273 8.63386 53.8121L11.2598 52.3979L14.7114 56.2012V60.1281H2.75391V59.2035C2.75391 56.9701 4.53146 55.9391 7.43187 54.4417ZM21.1979 62.8822V65.6361H17.4653V62.8822H21.1979ZM14.7114 65.6361H2.75391V62.8822H14.7114V65.6361ZM2.75391 72.4485V68.3902H14.7114V72.4485H2.75391ZM17.4653 68.39H21.1979V72.4484H17.4653V68.39ZM21.3257 60.1283H17.4653V56.2014L20.9168 52.3981L23.5428 53.8123C23.9417 54.0271 24.344 54.2349 24.7427 54.4407C25.0082 54.5779 25.2693 54.7128 25.525 54.8476C23.5162 56.0821 21.7942 57.6595 21.3257 60.1283ZM23.9518 61.5052C23.9518 58.7539 26.119 57.5255 29.6548 55.749C30.0126 55.5693 30.3725 55.3885 30.7308 55.2038L34.3919 53.3177L40.263 59.7306L45.623 55.848V87.7546L23.952 73.0944L23.9518 61.5052ZM53.3641 56.06L49.3882 53.18L53.652 50.2491L57.0712 52.0107L53.3641 56.06ZM70.6023 33.0199C70.6023 29.4604 73.1605 26.4886 76.5345 25.8425V29.1887H79.2884V25.8425C82.6625 26.4886 85.2207 29.4604 85.2207 33.0199V33.1602H70.6021V33.0199H70.6023ZM70.6023 38.5893V35.9141H85.2209V38.5893C85.2209 42.6197 81.9419 45.8987 77.9117 45.8987C73.8814 45.8987 70.6023 42.6197 70.6023 38.5893ZM77.9117 48.6526C78.9211 48.6526 79.8954 48.5015 80.8154 48.2237L81.0647 50.7145C81.0333 51.9117 79.6035 52.9158 77.9117 52.9158C76.2199 52.9158 74.79 51.9117 74.7588 50.7145L75.0081 48.2239C75.9279 48.5015 76.9023 48.6526 77.9117 48.6526ZM91.2461 72.4485H72.8023L72.8024 61.5052C72.8024 58.2195 70.8351 56.2982 68.475 54.8474C68.7307 54.7127 68.992 54.5777 69.2572 54.4406C69.6558 54.2346 70.0581 54.0269 70.457 53.8121L72.5137 52.7047C73.436 54.4499 75.5077 55.6699 77.9115 55.6699C80.3153 55.6699 82.3871 54.4499 83.3093 52.7047L85.366 53.8121C85.7656 54.0275 86.1686 54.2357 86.5681 54.4418C89.4685 55.9391 91.2461 56.9701 91.2461 59.2037V72.4485Z" fill="white"/>
<path d="M64.5391 67.0137H67.293V69.7676H64.5391V67.0137Z" fill="white"/>
<path d="M64.5391 61.5059H67.293V64.2598H64.5391V61.5059Z" fill="white"/>
</svg>
