<svg width="94" height="95" viewBox="0 0 94 95" fill="none" xmlns="http://www.w3.org/2000/svg">
<g clip-path="url(#clip0_19197_245)">
<path d="M86.5 63.4063H79.7487C78.9203 63.4063 78.2488 64.0777 78.2488 64.9062C78.2488 65.7348 78.9203 66.4062 79.7487 66.4062H84.9999V91.4061H72.2001V70.1304C72.2001 69.3018 71.5285 68.6304 70.7001 68.6304C69.8717 68.6304 69.2002 69.3018 69.2002 70.1304V91.4063H56.4V79.2528C56.4 78.4242 55.7284 77.7528 54.9 77.7528C54.0717 77.7528 53.4001 78.4242 53.4001 79.2528V91.4063H40.5999V88.3746C40.5999 87.5461 39.9283 86.8747 39.1 86.8747C38.2716 86.8747 37.6 87.5461 37.6 88.3746V91.4063H29.496C30.2524 90.4012 30.7604 89.1997 30.933 87.8942L84.7377 56.8298C86.467 55.8316 87.7053 54.2134 88.2251 52.2739C88.7448 50.3342 88.4814 48.3138 87.4828 46.5847L79.4829 32.7283C78.4845 30.999 76.8665 29.7605 74.9268 29.2407C72.9875 28.721 70.9669 28.9845 69.2376 29.983L63.3909 33.3588C62.6734 33.7729 62.4277 34.6904 62.8419 35.4078C63.2561 36.1255 64.1735 36.3708 64.8908 35.9568L69.4386 33.331L81.9386 54.9819L70.8534 61.382L60.2153 42.9559C59.8011 42.2383 58.8837 41.993 58.1662 42.407C57.4487 42.8212 57.203 43.7386 57.6172 44.4559L68.2554 62.8819L57.1702 69.282L51.0936 58.7571C50.6794 58.0394 49.762 57.7942 49.0445 58.2082C48.327 58.6224 48.0814 59.5398 48.4956 60.2573L54.572 70.7821L43.4868 77.1822L41.9712 74.5572C41.557 73.8395 40.6396 73.5944 39.9221 74.0082C39.2046 74.4224 38.959 75.3399 39.3731 76.0573L40.8887 78.6824L30.9996 84.3919V83.0603L40.7226 66.2195C40.7233 66.218 48.6228 52.536 48.6228 52.536C48.6233 52.5351 56.523 38.8526 56.523 38.8526C56.5232 38.8522 64.4232 25.1692 64.4232 25.1692C66.4911 21.5876 65.2595 16.9916 61.678 14.9237L47.8216 6.92383C46.0923 5.92563 44.072 5.66162 42.1322 6.18156C40.1925 6.70131 38.5745 7.93984 37.5763 9.66911L34.2008 15.5156C33.7866 16.2331 34.0324 17.1504 34.7497 17.5647C35.4668 17.9786 36.3842 17.7331 36.7986 17.0158L39.4242 12.4682L61.0748 24.9682L54.6748 36.0534L36.2487 25.4152C35.5313 25.001 34.614 25.2467 34.1997 25.9642C33.7855 26.6816 34.0313 27.5989 34.7486 28.0131L53.1746 38.6512L46.7745 49.7364L36.2497 43.6598C35.532 43.2458 34.6149 43.4913 34.2006 44.2088C33.7864 44.9263 34.0322 45.8435 34.7495 46.2577L45.2744 52.3343L38.8743 63.4195L36.2493 61.9039C35.5316 61.4899 34.6146 61.7354 34.2002 62.4529C33.786 63.1703 34.0319 64.0876 34.7492 64.502L37.3742 66.0175L30.9987 77.0599V7.90624C31 3.77061 27.6356 0.40625 23.5 0.40625H7.49999C3.36436 0.40625 0 3.77061 0 7.90624V86.9063C0 91.0419 3.36436 94.4062 7.49999 94.4062H86.5C90.6356 94.4062 94 91.0419 94 86.9063V70.9062C94 66.7706 90.6356 63.4063 86.5 63.4063ZM72.1687 32.0591C72.8177 31.9407 73.4911 31.9616 74.1508 32.1382C75.3164 32.4509 76.2874 33.1926 76.8852 34.2281L84.8853 48.0844C85.4829 49.1197 85.6401 50.3316 85.3278 51.4971C85.151 52.1567 84.8326 52.7505 84.4054 53.2532L72.1687 32.0591ZM41.1531 10.0012C41.6558 9.574 42.2495 9.25565 42.9092 9.07867C44.0748 8.76674 45.2867 8.92353 46.322 9.52131L60.1784 17.5212C61.872 18.499 62.6888 20.4189 62.3519 22.2405L41.1531 10.0012ZM28.0001 86.9063C28.0001 89.3875 25.9815 91.4063 23.5 91.4063H7.49999C5.01854 91.4063 2.99992 89.3875 2.99992 86.9063V7.90624C2.99992 5.42497 5.01854 3.40617 7.49999 3.40617H23.5C25.9815 3.40617 28.0001 5.42497 28.0001 7.90624V86.9063ZM91.0001 86.9063C91.0001 88.8617 89.7459 90.5291 88.0002 91.1482V66.6641C89.7459 67.2834 91.0001 68.9508 91.0001 70.9061V86.9063Z" fill="white"/>
<path d="M15.4999 73.4062C12.4671 73.4062 10 75.8736 10 78.9062C10 81.9388 12.4671 84.4061 15.4999 84.4061C18.5327 84.4061 20.9998 81.9388 20.9998 78.9062C21 75.8738 18.5325 73.4062 15.4999 73.4062ZM15.4999 81.4064C14.1213 81.4064 12.9999 80.285 12.9999 78.9064C12.9999 77.5277 14.1213 76.4064 15.4999 76.4064C16.8785 76.4064 17.9999 77.5277 17.9999 78.9064C17.9999 80.285 16.8783 81.4064 15.4999 81.4064Z" fill="white"/>
</g>
<defs>
<clipPath id="clip0_19197_245">
<rect width="94" height="94" fill="white" transform="translate(0 0.40625)"/>
</clipPath>
</defs>
</svg>
