<svg width="59" height="59" viewBox="0 0 59 59" fill="none" xmlns="http://www.w3.org/2000/svg">
<g clip-path="url(#clip0_19196_28)">
<path d="M28.0757 52.5038L10.4805 52.5038C8.54404 52.5038 6.96875 50.9284 6.96875 48.9921L6.96875 45.1914C6.96875 43.2551 8.54415 41.6797 10.4805 41.6797L28.0755 41.6797C30.012 41.6797 31.5873 43.2551 31.5873 45.1914L31.5873 48.9921C31.5874 50.9285 30.012 52.5038 28.0757 52.5038ZM10.4805 44.172C9.91825 44.172 9.46094 44.6294 9.46094 45.1915L9.46094 48.9922C9.46094 49.5543 9.91837 50.0118 10.4805 50.0118L28.0755 50.0118C28.6378 50.0118 29.0951 49.5543 29.0951 48.9922L29.0951 45.1915C29.0951 44.6294 28.6378 44.172 28.0755 44.172L10.4805 44.172Z" fill="white"/>
<path d="M57.8115 49.5657L56.9211 43.8378C56.7275 42.5929 55.6727 41.6895 54.4129 41.6895L50.1124 41.6895L50.1124 39.4004C50.1124 37.8003 50.5713 36.308 51.4393 35.0847C52.2606 33.9273 52.6947 32.5635 52.6947 31.1408C52.6947 29.2683 51.9516 27.5218 50.6024 26.2229C49.6232 25.2803 48.4186 24.6682 47.1152 24.4294L47.1152 4.01172C47.1152 2.0754 45.5399 0.5 43.6035 0.5L4.69531 0.5C2.759 0.5 1.18359 2.0754 1.18359 4.01172L1.18359 54.9883C1.18359 56.9246 2.759 58.5 4.69531 58.5L43.6035 58.5C45.5399 58.5 47.1152 56.9246 47.1152 54.9883L47.1152 52.4939L55.3034 52.4939C56.0457 52.4939 56.7483 52.1706 57.2312 51.6068C57.7141 51.043 57.9256 50.2991 57.8115 49.5657ZM50.2025 31.1407C50.2025 32.0437 49.9274 32.9087 49.407 33.6422C48.2381 35.2894 47.6203 37.2805 47.6203 39.4003L47.6203 41.6894L44.1181 41.6894L44.1181 39.4002C44.1181 37.3553 43.4827 35.3389 42.2804 33.5691C41.7589 32.8012 41.5025 31.901 41.539 30.9659C41.6266 28.7211 43.4538 26.8957 45.6988 26.8104C46.8907 26.7645 48.018 27.1939 48.8741 28.0182C49.7307 28.843 50.2025 29.9519 50.2025 31.1407ZM44.623 54.9883C44.623 55.5504 44.1657 56.0078 43.6035 56.0078L4.69531 56.0078C4.13321 56.0078 3.67578 55.5504 3.67578 54.9883L3.67578 4.01172C3.67578 3.44962 4.13321 2.99219 4.69531 2.99219L43.6035 2.99219C44.1657 2.99219 44.623 3.44962 44.623 4.01172L44.623 24.4295C41.5477 25.0028 39.1737 27.6646 39.0488 30.8687C38.9912 32.3397 39.3957 33.7577 40.2187 34.9694C41.1393 36.3245 41.6258 37.8568 41.6258 39.4003L41.6258 41.6895L37.3252 41.6895C36.0653 41.6895 35.0104 42.5932 34.817 43.8379L33.9265 49.5657C33.8124 50.2992 34.0239 51.0431 34.5069 51.6069C34.9898 52.1707 35.6923 52.4941 36.4347 52.4941L44.623 52.4941L44.623 54.9883ZM55.3384 49.9857C55.3246 50.0018 55.3114 50.0018 55.3034 50.0018L36.4347 50.0018C36.4268 50.0018 36.4134 50.0018 36.3997 49.9857C36.3859 49.9695 36.3879 49.9564 36.389 49.9485L37.2795 44.2204C37.283 44.1979 37.3022 44.1816 37.3251 44.1816L54.4128 44.1816C54.4356 44.1816 54.4549 44.1981 54.4584 44.2207L55.3488 49.9485C55.3502 49.9564 55.3522 49.9695 55.3384 49.9857Z" fill="white"/>
<path d="M9.69141 9.94727L24.1498 9.94727C24.838 9.94727 25.3959 9.38936 25.3959 8.70117C25.3959 8.01299 24.838 7.45508 24.1498 7.45508L9.69141 7.45508C9.00322 7.45508 8.44531 8.01299 8.44531 8.70117C8.44531 9.38936 9.00322 9.94727 9.69141 9.94727Z" fill="white"/>
<path d="M9.69141 17.2559L37.0629 17.2559C37.7511 17.2559 38.309 16.6979 38.309 16.0098C38.309 15.3216 37.7511 14.7637 37.0629 14.7637L9.69141 14.7637C9.00322 14.7637 8.44531 15.3216 8.44531 16.0098C8.44531 16.6979 9.00322 17.2559 9.69141 17.2559Z" fill="white"/>
<path d="M9.69141 22.791L37.0629 22.791C37.7511 22.791 38.309 22.2331 38.309 21.5449C38.309 20.8567 37.7511 20.2988 37.0629 20.2988L9.69141 20.2988C9.00322 20.2988 8.44531 20.8567 8.44531 21.5449C8.44531 22.2331 9.00322 22.791 9.69141 22.791Z" fill="white"/>
<path d="M9.69141 30.5918L34.47 30.5918C35.1582 30.5918 35.7161 30.0339 35.7161 29.3457C35.7161 28.6575 35.1582 28.0996 34.47 28.0996L9.69141 28.0996C9.00322 28.0996 8.44531 28.6575 8.44531 29.3457C8.44531 30.0339 9.00322 30.5918 9.69141 30.5918Z" fill="white"/>
<path d="M31.0413 33.6348L9.69141 33.6348C9.00322 33.6348 8.44531 34.1927 8.44531 34.8809C8.44531 35.569 9.00322 36.127 9.69141 36.127L31.0412 36.127C31.7294 36.127 32.2873 35.569 32.2873 34.8809C32.2873 34.1927 31.7295 33.6348 31.0413 33.6348Z" fill="white"/>
</g>
<defs>
<clipPath id="clip0_19196_28">
<rect width="58" height="58" fill="white" transform="translate(0.511719 0.5)"/>
</clipPath>
</defs>
</svg>
