<svg width="70" height="71" viewBox="0 0 70 71" fill="none" xmlns="http://www.w3.org/2000/svg">
<g clip-path="url(#clip0_19196_18)">
<path d="M46.6294 30.0286C47.7957 28.8741 48.5196 27.2737 48.5196 25.5069C48.5196 21.9976 45.664 19.1426 42.154 19.1426C39.4493 19.1426 37.052 20.8572 36.1569 23.3697C35.7818 23.3005 35.3958 23.2625 35.0008 23.2625C34.6058 23.2625 34.22 23.3005 33.8447 23.3697C32.9496 20.857 30.5522 19.1426 27.8476 19.1426C24.3376 19.1426 21.482 21.9976 21.482 25.5069C21.482 27.2737 22.2061 28.8741 23.3724 30.0286C20.5746 31.6223 18.7734 34.6403 18.7734 37.9225C18.7734 38.4889 19.2325 38.9479 19.7988 38.9479C20.3651 38.9479 20.8242 38.4889 20.8242 37.9225C20.8242 35.0236 22.6392 32.3912 25.3443 31.3589C26.1132 31.6891 26.9594 31.8725 27.8478 31.8725C28.2391 31.8725 28.6265 31.8348 29.0058 31.7648C29.33 32.6714 29.8536 33.4835 30.5243 34.148C27.7011 35.7465 25.9269 38.7421 25.9269 42.0428C25.9269 42.6093 26.386 43.0682 26.9523 43.0682C27.5186 43.0682 27.9777 42.6093 27.9777 42.0428C27.9777 39.2137 29.6615 36.6733 32.2674 35.5711C32.3371 35.5415 32.4015 35.5048 32.4608 35.4628C33.2395 35.8031 34.0982 35.9931 35.0008 35.9931C35.8895 35.9931 36.7358 35.8095 37.5047 35.4792C40.2086 36.5116 42.024 39.1467 42.024 42.0428C42.024 42.6093 42.4831 43.0682 43.0494 43.0682C43.6157 43.0682 44.0748 42.6093 44.0748 42.0428C44.0748 38.7636 42.2732 35.7432 39.4762 34.1489C40.1475 33.4843 40.6715 32.6718 40.9958 31.7648C41.3752 31.8348 41.7626 31.8725 42.1538 31.8725C43.0422 31.8725 43.8884 31.6891 44.6572 31.3589C47.3623 32.3912 49.1773 35.0234 49.1773 37.9225C49.1773 38.4889 49.6364 38.9479 50.2027 38.9479C50.769 38.9479 51.2281 38.4889 51.2281 37.9225C51.2283 34.6401 49.4272 31.6223 46.6294 30.0286ZM28.6357 29.6279C28.6357 29.6682 28.638 29.7079 28.6387 29.7479C28.3804 29.796 28.1159 29.8217 27.8478 29.8217C25.4686 29.8217 23.5329 27.8862 23.5329 25.5069C23.5329 23.1285 25.4686 21.1934 27.8478 21.1934C29.6834 21.1934 31.3094 22.3581 31.9145 24.0635C29.9608 25.1515 28.6357 27.2375 28.6357 29.6279ZM30.6865 29.6279C30.6865 27.249 32.6219 25.3134 35.001 25.3134C37.38 25.3134 39.3154 27.2488 39.3154 29.6279C39.3154 32.0069 37.38 33.9423 35.001 33.9423C32.6219 33.9423 30.6865 32.0068 30.6865 29.6279ZM41.3631 29.7479C41.3637 29.7079 41.3661 29.6681 41.3661 29.6279C41.3661 27.2375 40.041 25.1517 38.0873 24.0637C38.6924 22.3582 40.3184 21.1935 42.154 21.1935C44.5332 21.1935 46.4689 23.1285 46.4689 25.507C46.4689 27.8862 44.5332 29.8219 42.154 29.8219C41.8859 29.8217 41.6213 29.796 41.3631 29.7479Z" fill="white"/>
<path d="M61.5552 45.1127L61.5552 26.4742C64.1111 25.9918 66.0509 23.7436 66.0509 21.0495C66.0509 18.0048 63.574 15.5279 60.5292 15.5279C58.8559 15.5279 57.3551 16.2771 56.3418 17.4564L40.2107 8.14241C40.4112 7.57105 40.5217 6.95746 40.5217 6.31829C40.5217 3.27382 38.0447 0.796875 35.0001 0.796875C31.9555 0.796875 29.4784 3.27382 29.4784 6.31843C29.4784 6.95759 29.5888 7.57105 29.7895 8.14254L13.6584 17.4564C12.645 16.2771 11.1442 15.5279 9.47091 15.5279C6.42617 15.5279 3.94922 18.0048 3.94922 21.0495C3.94922 23.7436 5.889 25.9917 8.44497 26.4742L8.44497 45.1127C5.889 45.5951 3.94922 47.8433 3.94922 50.5374C3.94922 53.5821 6.42617 56.059 9.47091 56.059C11.1416 56.059 12.6402 55.3121 13.6536 54.1361L29.7893 63.4518C29.5888 64.023 29.4784 64.6364 29.4784 65.2753C29.4784 68.3201 31.9554 70.797 35.0001 70.797C38.0449 70.797 40.5218 68.3201 40.5218 65.2753C40.5218 64.6364 40.4115 64.023 40.2109 63.4518L56.3467 54.1361C57.3601 55.3123 58.8587 56.059 60.5294 56.059C63.5741 56.059 66.0511 53.5821 66.0511 50.5374C66.0509 47.8432 64.111 45.5951 61.5552 45.1127ZM60.5292 17.5787C62.443 17.5787 64.0001 19.1357 64.0001 21.0495C64.0001 22.9634 62.443 24.5205 60.5292 24.5205C58.6154 24.5205 57.0583 22.9634 57.0583 21.0495C57.0583 19.1357 58.6154 17.5787 60.5292 17.5787ZM35.0001 2.84767C36.9139 2.84767 38.471 4.40463 38.471 6.31843C38.471 8.23045 36.9168 9.78632 35.0055 9.78919C35.0037 9.78919 35.0019 9.78892 35.0001 9.78892C34.9984 9.78892 34.9966 9.78919 34.9948 9.78919C33.0835 9.78632 31.5292 8.23045 31.5292 6.31843C31.5292 4.40463 33.0862 2.84767 35.0001 2.84767ZM6.00001 21.0495C6.00001 19.1357 7.55711 17.5787 9.47091 17.5787C11.3847 17.5787 12.9418 19.1357 12.9418 21.0495C12.9418 22.9634 11.3847 24.5205 9.47091 24.5205C7.55711 24.5205 6.00001 22.9634 6.00001 21.0495ZM9.47091 54.0081C7.55711 54.0081 6.00001 52.451 6.00001 50.5372C6.00001 48.6234 7.55711 47.0663 9.47091 47.0663C11.3847 47.0663 12.9418 48.6234 12.9418 50.5372C12.9418 52.451 11.3847 54.0081 9.47091 54.0081ZM35.0001 68.7461C33.0863 68.7461 31.5292 67.189 31.5292 65.2752C31.5292 63.3614 33.0863 61.8043 35.0001 61.8043C36.9139 61.8043 38.471 63.3614 38.471 65.2752C38.471 67.189 36.9139 68.7461 35.0001 68.7461ZM39.1831 61.677C38.3823 60.7473 37.2783 60.0868 36.0254 59.8506L36.0254 55.9002C36.0254 55.3338 35.5663 54.8748 35 54.8748C34.4337 54.8748 33.9746 55.3338 33.9746 55.9002L33.9746 59.8506C32.7218 60.0869 31.6178 60.7473 30.8169 61.677L14.6814 52.3615C14.8821 51.79 14.9925 51.1765 14.9925 50.5374C14.9925 49.8976 14.8819 49.2835 14.6809 48.7116L18.103 46.7353C18.5934 46.452 18.7613 45.8249 18.4781 45.3345C18.195 44.8441 17.5679 44.6763 17.0773 44.9593L13.6522 46.9374C12.8514 46.0085 11.7478 45.3487 10.4956 45.1126L10.4956 26.4743C11.7482 26.2382 12.8521 25.578 13.6529 24.6487L17.0826 26.6293C17.2441 26.7226 17.4205 26.7669 17.5945 26.7669C17.9488 26.7669 18.2934 26.583 18.4833 26.2542C18.7666 25.7638 18.5986 25.1365 18.1082 24.8534L14.681 22.8742C14.8817 22.3026 14.9922 21.6889 14.9922 21.0495C14.9922 20.413 14.8827 19.8018 14.6835 19.2324L30.8169 9.91703C31.6177 10.8464 32.7216 11.5068 33.9742 11.7431L33.9742 15.6938C33.9742 16.2603 34.4333 16.7192 34.9996 16.7192C35.5659 16.7192 36.025 16.2603 36.025 15.6938L36.025 11.7431C37.2776 11.5068 38.3815 10.8464 39.1823 9.91703L55.3157 19.2324C55.1166 19.8018 55.007 20.413 55.007 21.0495C55.007 21.6889 55.1175 22.3026 55.3182 22.8742L51.891 24.8534C51.4006 25.1365 51.2326 25.7638 51.5159 26.2542C51.7058 26.583 52.0504 26.7669 52.4047 26.7669C52.5786 26.7669 52.7551 26.7226 52.9166 26.6293L56.3463 24.6487C57.1472 25.578 58.2511 26.2382 59.5036 26.4743L59.5036 45.1126C58.2513 45.3487 57.1479 46.0085 56.347 46.9374L52.9219 44.9593C52.4315 44.6766 51.8043 44.8441 51.5211 45.3345C51.2378 45.8249 51.4058 46.452 51.8962 46.7353L55.3183 48.7116C55.1173 49.2835 55.0067 49.8976 55.0067 50.5374C55.0067 51.1765 55.1171 51.7901 55.3178 52.3615L39.1831 61.677ZM60.5292 54.0081C58.6154 54.0081 57.0583 52.451 57.0583 50.5372C57.0583 48.6234 58.6154 47.0663 60.5292 47.0663C62.443 47.0663 64.0001 48.6234 64.0001 50.5372C64.0001 52.451 62.443 54.0081 60.5292 54.0081Z" fill="white"/>
<path d="M43.5887 46.3906L40.5371 46.3906C39.9708 46.3906 39.5117 46.8496 39.5117 47.416C39.5117 47.9824 39.9708 48.4414 40.5371 48.4414L43.5887 48.4414C44.155 48.4414 44.6141 47.9824 44.6141 47.416C44.6141 46.8496 44.155 46.3906 43.5887 46.3906Z" fill="white"/>
<path d="M43.589 50.4082L26.4121 50.4082C25.8458 50.4082 25.3867 50.8672 25.3867 51.4336C25.3867 52 25.8458 52.459 26.4121 52.459L43.5892 52.459C44.1555 52.459 44.6146 52 44.6146 51.4336C44.6146 50.8672 44.1553 50.4082 43.589 50.4082Z" fill="white"/>
<path d="M26.4121 48.4414L26.4263 48.4414C26.9926 48.4414 27.4517 47.9824 27.4517 47.416C27.4517 46.8496 26.9926 46.3906 26.4263 46.3906L26.4121 46.3906C25.8458 46.3906 25.3867 46.8496 25.3867 47.416C25.3867 47.9824 25.8458 48.4414 26.4121 48.4414Z" fill="white"/>
<path d="M29.9771 48.4414C30.5434 48.4414 31.0025 47.9824 31.0025 47.416C31.0025 46.8496 30.5434 46.3906 29.9771 46.3906L29.9629 46.3906C29.3966 46.3906 28.9375 46.8496 28.9375 47.416C28.9375 47.9824 29.3966 48.4414 29.9629 48.4414L29.9771 48.4414Z" fill="white"/>
<path d="M33.5279 48.4414C34.0942 48.4414 34.5533 47.9824 34.5533 47.416C34.5533 46.8496 34.0942 46.3906 33.5279 46.3906L33.5137 46.3906C32.9474 46.3906 32.4883 46.8496 32.4883 47.416C32.4883 47.9824 32.9474 48.4414 33.5137 48.4414L33.5279 48.4414Z" fill="white"/>
</g>
<defs>
<clipPath id="clip0_19196_18">
<rect width="70" height="70" fill="white" transform="translate(0 0.796875)"/>
</clipPath>
</defs>
</svg>
