<svg width="23" height="14" viewBox="0 0 23 14" fill="none" xmlns="http://www.w3.org/2000/svg">
<path d="M21.2919 13.2358C20.781 13.3076 18.2981 13.2358 18.1689 13.2358C17.527 13.2423 16.9083 12.9959 16.4467 12.5498C15.9214 12.0446 15.4478 11.4878 14.9455 10.9625C14.793 10.8023 14.6289 10.6536 14.4546 10.5176C14.0442 10.2047 13.6394 10.2764 13.4471 10.7587C13.2965 11.2813 13.1928 11.8164 13.1371 12.3575C13.1282 12.5854 13.0291 12.8005 12.8618 12.9555C12.6944 13.1104 12.4724 13.1927 12.2444 13.1842C11.9057 13.2014 11.567 13.21 11.2312 13.2014C10.0095 13.195 8.80662 12.9 7.72069 12.3403C6.54836 11.6851 5.5265 10.7914 4.72112 9.71672C3.43255 8.01521 2.31894 6.18804 1.39721 4.26297C1.34841 4.16537 0.381085 2.1073 0.358122 2.01258C0.298149 1.87772 0.292424 1.72494 0.342133 1.58596C0.391842 1.44699 0.493167 1.33251 0.625069 1.26628C0.797292 1.20026 3.9863 1.26628 4.03797 1.26628C4.27543 1.26401 4.50741 1.33772 4.70002 1.47663C4.89263 1.61554 5.0358 1.81238 5.10863 2.03841C5.69841 3.54202 6.50386 4.95181 7.49967 6.22345C7.63856 6.39484 7.80203 6.54476 7.98476 6.66836C8.03186 6.71382 8.09024 6.74588 8.15388 6.76121C8.21751 6.77654 8.28409 6.7746 8.34672 6.75557C8.40935 6.73655 8.46576 6.70114 8.51012 6.653C8.55448 6.60487 8.58517 6.54576 8.59903 6.48178C8.72519 6.06677 8.79942 5.63773 8.82005 5.20446C8.83727 4.34334 8.82005 3.76926 8.77125 2.90814C8.7886 2.61469 8.68953 2.32623 8.49553 2.10537C8.30154 1.88451 8.02828 1.74906 7.73504 1.72841C7.48244 1.68535 7.448 1.47868 7.62309 1.27202C7.95893 0.844328 8.42393 0.775438 8.92912 0.749605C9.69265 0.706549 10.459 0.749605 11.2254 0.749605H11.3919C11.7284 0.748768 12.0641 0.782432 12.3937 0.850068C12.5864 0.889542 12.7612 0.990228 12.8921 1.13713C13.023 1.28402 13.1029 1.46927 13.1199 1.66526C13.1586 1.88215 13.1759 2.10231 13.1716 2.32258C13.1515 3.2612 13.1055 4.19982 13.0941 5.14131C13.0872 5.51318 13.1209 5.8847 13.1945 6.24928C13.3065 6.74873 13.6481 6.87503 13.9982 6.51049C14.4346 6.0421 14.8348 5.5412 15.1952 5.01214C15.8433 4.04882 16.377 3.01329 16.7854 1.92647C17.0064 1.36961 17.1758 1.24618 17.7757 1.24618H21.1599C21.3618 1.24282 21.5631 1.26991 21.7569 1.32655C21.8253 1.3448 21.8893 1.3769 21.9448 1.42089C22.0002 1.46487 22.0461 1.51979 22.0795 1.58224C22.1129 1.64468 22.133 1.71332 22.1388 1.78389C22.1445 1.85447 22.1357 1.92547 22.1128 1.99249C21.915 2.71256 21.5754 3.38591 21.114 3.97306C20.4251 4.94612 19.7017 5.89622 18.9956 6.84345C18.9062 6.96739 18.8248 7.09681 18.7516 7.23096C18.4875 7.70744 18.5076 7.97726 18.8894 8.37912C19.5037 9.0106 20.161 9.60477 20.7523 10.2535C21.1883 10.7262 21.5821 11.2362 21.9291 11.7777C22.3654 12.478 22.0985 13.121 21.2919 13.2358Z" fill="white"/>
</svg>
