<svg width="100" height="16" fill="none" xmlns="http://www.w3.org/2000/svg"><g clip-path="url(#clip0_20_1079)"><path d="M19.268 16h-3.13L3.264 4.228V16H0V0h3.13l12.874 11.703V0h3.264v16zm9.979-16h-3.264v16h3.264V0zm38.242 16h-3.264V2.743h-8.89V0H76.38v2.743h-8.89V16z" fill="#fff"/><mask id="a" style="mask-type:luminance" maskUnits="userSpaceOnUse" x="-5" y="-5" width="109" height="25"><path d="M103.498-4.07H-4.055v23.984h107.553V-4.069z" fill="#fff"/></mask><g mask="url(#a)" fill="#fff"><path d="M86.922-.004h3.962c2.986 0 5.251.679 6.797 2.035 1.545 1.357 2.32 3.346 2.324 5.966 0 2.623-.775 4.611-2.324 5.965-1.55 1.354-3.816 2.032-6.797 2.033h-3.962c-2.986 0-5.252-.678-6.798-2.034-1.546-1.356-2.319-3.345-2.318-5.966 0-2.622.775-4.61 2.324-5.965C81.68.676 83.944-.002 86.922-.004zm8.216 12.023c1.033-.822 1.55-2.163 1.55-4.022 0-1.86-.517-3.2-1.55-4.024-1.033-.821-2.729-1.233-5.087-1.234h-2.296c-2.356 0-4.052.412-5.087 1.234-1.035.823-1.553 2.164-1.553 4.022 0 1.86.516 3.2 1.55 4.022 1.032.822 2.728 1.234 5.086 1.236h2.296c2.356 0 4.051-.412 5.087-1.236M48.071 16h5.605L39.879 8l13.797-8h-5.605l-9.858 5.554V0h-3.264v8.62l3.264 1.837v-.012L48.07 16z"/></g></g><defs><clipPath id="clip0_20_1079"><path fill="#fff" d="M0 0h100v16H0z"/></clipPath></defs></svg>47C81.6332 4.79614 81.1154 6.13679 81.1145 7.99544C81.1145 9.85496 81.6311 11.1956 82.6642 12.0174C83.6973 12.8392 85.3929 13.251 87.751 13.2527H90.0471C92.4027 13.2527 94.0983 12.8409 95.134 12.0174" fill="white"/>
<path d="M48.0713 16H53.676L39.8786 7.99934L53.676 0H48.0713L38.2127 5.55364V0H34.9493V8.62093L38.2127 10.4568V10.445L48.0713 16Z" fill="white"/>
</g>
</g>
<defs>
<clipPath id="clip0_20_1079">
<rect width="100" height="16" fill="white"/>
</clipPath>
</defs>
</svg>
