<svg width="95" height="95" viewBox="0 0 95 95" fill="none" xmlns="http://www.w3.org/2000/svg">
<g clip-path="url(#clip0_19197_267)">
<path d="M80.6486 78.5015C79.8879 78.5015 79.2716 79.118 79.2716 79.8785L79.2716 85.9833C79.2716 89.053 76.7777 91.5921 73.7096 91.649C70.5537 91.58 68.0069 88.993 68.0069 85.8205L68.0069 83.9016C68.0069 81.6814 66.2005 79.875 63.9801 79.875L10.8664 79.875L10.8664 7.43385C10.8664 5.07743 12.7835 3.16016 15.1401 3.16016L74.9977 3.16016C77.3544 3.16016 79.2714 5.07743 79.2714 7.43385L79.2714 15.8621C79.2714 16.6225 79.8878 17.239 80.6484 17.239C81.409 17.239 82.0253 16.6225 82.0253 15.8621L82.0253 7.43385C82.0255 3.55874 78.8729 0.40625 74.9979 0.40625L15.1401 0.40625C11.2652 0.40625 8.11253 3.55874 8.11253 7.43385L8.11253 79.875L5.33127 79.875C3.11107 79.875 1.30469 81.6814 1.30469 83.9016L1.30469 85.8205C1.30469 90.5546 5.1563 94.4062 9.89045 94.4062L73.8385 94.4062C78.0213 94.4062 82.0255 90.7283 82.0255 85.9833L82.0255 79.8785C82.0255 79.118 81.4092 78.5015 80.6486 78.5015ZM9.89045 91.6523C6.6748 91.6523 4.05859 89.0361 4.05859 85.8205L4.05859 83.9016C4.05859 83.1999 4.62939 82.6289 5.33127 82.6289L63.9801 82.6289C64.6818 82.6289 65.253 83.1999 65.253 83.9016L65.253 85.8205C65.253 88.0699 66.1223 90.1199 67.5429 91.6523L9.89045 91.6523Z" fill="white"/>
<path d="M46.8709 22.873L18.3926 22.873C17.6319 22.873 17.0156 23.4896 17.0156 24.25C17.0156 25.0104 17.6319 25.627 18.3926 25.627L46.8709 25.627C47.6315 25.627 48.2479 25.0104 48.2479 24.25C48.2479 23.4896 47.6314 22.873 46.8709 22.873Z" fill="white"/>
<path d="M46.8709 33.873L18.3926 33.873C17.6319 33.873 17.0156 34.4896 17.0156 35.25C17.0156 36.0104 17.6319 36.627 18.3926 36.627L46.8709 36.627C47.6315 36.627 48.2479 36.0104 48.2479 35.25C48.2479 34.4896 47.6314 33.873 46.8709 33.873Z" fill="white"/>
<path d="M46.8709 44.875L18.3926 44.875C17.6319 44.875 17.0156 45.4915 17.0156 46.252C17.0156 47.0124 17.6319 47.6289 18.3926 47.6289L46.8709 47.6289C47.6315 47.6289 48.2479 47.0124 48.2479 46.252C48.2479 45.4915 47.6314 44.875 46.8709 44.875Z" fill="white"/>
<path d="M46.8709 55.877L18.3926 55.877C17.6319 55.877 17.0156 56.4935 17.0156 57.2539C17.0156 58.0144 17.6319 58.6309 18.3926 58.6309L46.8709 58.6309C47.6315 58.6309 48.2479 58.0144 48.2479 57.2539C48.2479 56.4935 47.6314 55.877 46.8709 55.877Z" fill="white"/>
<path d="M91.8523 37.6212C91.0377 37.0978 90.7581 36.0541 91.2018 35.1936C91.9259 33.7891 91.8866 32.1334 91.0966 30.7647C90.3063 29.396 88.8922 28.5341 87.3137 28.4588C86.3465 28.4127 85.5826 27.6488 85.5365 26.6816C85.4614 25.1031 84.5994 23.6888 83.2307 22.8986C81.8619 22.1085 80.2062 22.069 78.8015 22.7933C77.9416 23.237 76.8977 22.9576 76.3741 22.1428C75.5198 20.8132 74.0661 20.0195 72.4857 20.0195C70.9054 20.0195 69.4519 20.8132 68.5974 22.1428C68.074 22.9574 67.0304 23.2368 66.1698 22.7931C64.7653 22.0688 63.1092 22.1085 61.7407 22.8985C60.3722 23.6887 59.5103 25.1029 59.435 26.6816C59.3889 27.6486 58.625 28.4125 57.6578 28.4586C56.0791 28.5339 54.665 29.3957 53.8748 30.7645C53.0847 32.1332 53.0454 33.7889 53.7696 35.1936C54.2134 36.0541 53.9338 37.0976 53.1192 37.621C51.7898 38.4753 50.9961 39.9288 50.9961 41.5092C50.9959 43.0896 51.7898 44.5431 53.1192 45.3975C53.9338 45.9209 54.2134 46.9645 53.7696 47.825C53.0455 49.2297 53.0848 50.8853 53.8748 52.254C54.6652 53.6227 56.0793 54.4847 57.6578 54.5599C58.625 54.6058 59.3889 55.37 59.435 56.3371C59.5101 57.9157 60.372 59.3299 61.7407 60.1201C62.1248 60.3417 62.5317 60.5021 62.949 60.6053L62.949 72.6324C62.949 73.4053 63.3659 74.1237 64.0369 74.5072C64.7074 74.8906 65.5382 74.8856 66.2048 74.4929L72.4857 70.7922L78.7668 74.4931C79.4278 74.8823 80.2586 74.8937 80.9345 74.5072C81.6056 74.1237 82.0225 73.4053 82.0225 72.6324L82.0225 60.6053C82.4398 60.5021 82.8469 60.3417 83.2307 60.1201C84.5993 59.3299 85.4612 57.9157 85.5365 56.3369C85.5826 55.37 86.3465 54.606 87.3137 54.5599C88.8924 54.4847 90.3065 53.6229 91.0966 52.254C91.8868 50.8853 91.9261 49.2297 91.2018 47.825C90.7581 46.9645 91.0377 45.9209 91.8523 45.3975C93.1817 44.5431 93.9756 43.0896 93.9754 41.5092C93.9754 39.929 93.1817 38.4755 91.8523 37.6212ZM79.2686 71.5921L73.582 68.2415C72.9056 67.8429 72.0659 67.8433 71.3897 68.2415L65.7031 71.5921L65.7031 60.4327C65.8611 60.372 66.0174 60.304 66.1701 60.2253C67.0308 59.7815 68.0744 60.0613 68.5976 60.8757C69.4519 62.2053 70.9056 62.999 72.4859 62.999C74.0663 62.999 75.5198 62.2053 76.3743 60.8757C76.8975 60.0611 77.9409 59.7813 78.8019 60.2253C78.9547 60.304 79.1107 60.372 79.2688 60.4327L79.2688 71.5921L79.2686 71.5921ZM90.3634 43.0809C88.3481 44.376 87.6563 46.9582 88.754 49.0872C89.051 49.6633 89.0354 50.3158 88.7114 50.8772C88.3873 51.4387 87.83 51.7785 87.1826 51.8092C84.7896 51.9232 82.8994 53.8134 82.7857 56.206C82.7549 56.8536 82.415 57.411 81.8538 57.735C81.2922 58.0592 80.6397 58.0745 80.0638 57.7776C77.9341 56.6797 75.3522 57.3719 74.0573 59.387C73.7068 59.9324 73.1342 60.2451 72.4857 60.2451C71.8373 60.2451 71.2648 59.9323 70.9142 59.387C70.0335 58.0166 68.5579 57.2582 67.0341 57.2582C66.3172 57.2582 65.5892 57.4264 64.9079 57.7776C64.3316 58.0745 63.6793 58.0591 63.1177 57.735C62.5563 57.411 62.2166 56.8536 62.1858 56.2062C62.0721 53.8133 60.1818 51.923 57.7889 51.8092C57.1415 51.7785 56.584 51.4387 56.2601 50.8772C55.9359 50.3158 55.9203 49.6635 56.2175 49.0874C57.3152 46.9582 56.6234 44.376 54.6081 43.0809C54.0627 42.7304 53.7498 42.1576 53.75 41.5094C53.75 40.8611 54.0627 40.2885 54.6081 39.938C56.6236 38.6429 57.3152 36.0607 56.2175 33.9315C55.9204 33.3554 55.936 32.7031 56.2599 32.1415C56.5841 31.5801 57.1415 31.2404 57.7889 31.2096C60.1818 31.0956 62.0721 29.2053 62.1858 26.8127C62.2166 26.1651 62.5564 25.6078 63.1177 25.2835C63.6789 24.9597 64.3316 24.9437 64.9077 25.2409C67.0365 26.3386 69.6191 25.6469 70.9142 23.6316C71.2647 23.0861 71.8373 22.7734 72.4857 22.7734C73.1342 22.7734 73.7066 23.0863 74.0573 23.6316C75.3524 25.6469 77.9348 26.3381 80.0636 25.2409C80.6399 24.9437 81.2922 24.9593 81.8538 25.2833C82.4152 25.6076 82.7549 26.1648 82.7857 26.8123C82.8994 29.2051 84.7896 31.0954 87.1826 31.2094C87.83 31.24 88.3875 31.5799 88.7116 32.1413C89.0356 32.7027 89.0512 33.355 88.754 33.9312C87.6563 36.0603 88.3479 38.6425 90.3634 39.9376C90.9088 40.2881 91.2215 40.8607 91.2215 41.509C91.2217 42.1578 90.9088 42.7306 90.3634 43.0809Z" fill="white"/>
<path d="M72.4826 28.2695C65.1818 28.2695 59.2422 34.2092 59.2422 41.5099C59.2422 48.8107 65.182 54.7504 72.4826 54.7504C79.7832 54.7504 85.723 48.8107 85.723 41.5099C85.723 34.2092 79.7834 28.2695 72.4826 28.2695ZM72.4826 51.9965C66.7003 51.9965 61.9961 47.2922 61.9961 41.5099C61.9961 35.7277 66.7003 31.0234 72.4826 31.0234C78.2649 31.0234 82.9691 35.7277 82.9691 41.5099C82.9691 47.292 78.2649 51.9965 72.4826 51.9965Z" fill="white"/>
</g>
<defs>
<clipPath id="clip0_19197_267">
<rect width="94" height="94" fill="white" transform="translate(0.640625 0.40625)"/>
</clipPath>
</defs>
</svg>
